<?xml version="1.0" encoding="iso-8859-1"?>
<!-- Uploaded to: SVG Repo, www.svgrepo.com, Generator: SVG Repo Mixer Tools -->
<svg fill="#000000" version="1.1" id="Layer_1" xmlns="http://www.w3.org/2000/svg" xmlns:xlink="http://www.w3.org/1999/xlink" 
	 viewBox="0 0 492.308 492.308" xml:space="preserve">
<g>
	<g>
		<rect x="236.308" y="213.652" width="19.692" height="191.124"/>
	</g>
</g>
<g>
	<g>
		<rect x="236.308" y="159.872" width="19.692" height="24.507"/>
	</g>
</g>
<g>
	<g>
		<path d="M486.823,422.837L283.073,23.75C275.486,8.885,261.679,0,246.159,0c-15.529,0-29.337,8.885-36.923,23.75L5.477,422.837
			c-7.894,15.471-7.192,34.24,1.827,48.981c7.856,12.827,20.981,20.49,35.096,20.49h407.51c14.125,0,27.24-7.663,35.096-20.49
			C494.025,457.077,494.727,438.308,486.823,422.837z M468.208,461.538c-4.308,7.038-10.981,11.077-18.298,11.077H42.4
			c-7.317,0-13.99-4.038-18.298-11.077c-5.471-8.942-5.885-20.337-1.086-29.74l203.76-399.087
			c4.163-8.154,11.404-13.019,19.385-13.019c7.971,0,15.212,4.865,19.375,13.019l203.75,399.087
			C474.092,441.202,473.679,452.596,468.208,461.538z"/>
	</g>
</g>
</svg>